<svg width="69" height="93" viewBox="0 0 69 93" fill="none" xmlns="http://www.w3.org/2000/svg">
<path d="M15.6411 78.6265C15.2915 78.9789 15.7905 79.365 15.7261 79.8688L14.8346 81.5476C14.9095 81.7891 14.9793 82.0145 15.0642 82.2882C14.8176 83.0585 14.5382 83.8651 13.6872 84.4221C13.7105 83.3584 13.727 82.3583 13.7491 81.3478C12.9765 81.5024 13.0881 82.2611 12.6645 82.5742C12.7737 82.955 12.8574 83.2819 12.9411 83.6088L12.317 84.784L12.7113 86.0559C13.2191 86.0431 13.7269 86.0303 14.1813 86.0161C14.5951 87.1236 13.9287 87.3077 13.2138 87.5065C13.2875 87.8012 13.3556 88.1064 13.4237 88.4116C13.2407 88.4758 13.0359 88.5554 12.7989 88.6447C12.1116 89.0465 12.0235 89.9009 11.5774 90.5114C10.5565 90.2921 9.39518 90.8725 8.54954 89.9661C8.15733 90.0672 7.82966 90.1487 7.49643 90.2408L5.1094 88.9732C4.68435 89.1106 4.24873 89.2425 3.77528 89.3946L3.17353 90.5277C2.83971 90.6464 2.53258 90.7658 2.16649 90.8942C1.72797 91.159 2.02007 92.2153 0.911725 92.0841C1.30224 90.8387 2.04513 89.8478 2.56239 88.6698C2.30682 88.3861 2.01956 88.0856 1.73787 87.7746C1.79098 86.3232 3.20611 86.1062 3.98717 85.3238L8.18031 87.5506C8.97877 87.1945 9.92926 87.215 10.7502 86.5614C10.6795 86.1338 10.6031 85.7166 10.5168 85.2672L11.4361 83.536L10.8872 81.7649C11.7656 80.9266 10.9844 79.5164 11.9115 78.4081C11.6234 77.9053 11.273 77.3157 11.0931 76.9915L12.213 74.8826C11.9576 73.8592 11.6687 72.8987 11.4978 71.9202C11.4126 71.4176 11.306 70.675 11.5738 70.4002C12.4646 69.4878 11.16 68.0687 12.4398 67.4436C12.3162 66.9878 12.227 66.6714 12.1383 66.3284L12.7679 65.1428C12.5384 64.4022 12.2287 63.6593 12.0854 62.8838C11.9759 62.2741 12.0755 61.6276 12.0847 60.7178L12.8202 59.3328C12.7933 58.3635 12.7529 57.5216 12.7266 56.5257L13.2782 55.487L12.7443 53.7642L13.6302 52.0959C13.5632 51.7375 13.5168 51.417 13.4355 50.9837L14.2768 49.3994C14.0924 48.5482 14.1565 47.8155 14.6633 47.1162C14.9326 47.0171 15.2397 46.8977 15.5897 46.7742L17.1387 43.8573C17.3701 43.7785 17.5749 43.6989 17.8386 43.6103C18.5258 43.2085 18.614 42.3541 19.0712 41.7226C19.6336 41.6581 19.9937 41.3113 20.3824 40.8855C20.629 40.5995 21.3072 40.3678 21.6247 40.5095C22.2012 40.7753 22.6834 40.7086 23.1314 40.5026L25.36 41.686C25.8626 42.3969 26.2253 42.9123 26.5824 43.4382C26.9912 44.0454 27.2897 44.8092 27.8416 45.2233C28.404 45.6431 28.2291 46.559 29.0438 46.6822C29.1777 47.399 29.5894 47.8732 30.2788 48.1048C29.7864 48.879 30.7686 48.9164 30.9083 49.3672C31.1833 50.2262 31.4156 51.0893 31.6645 51.921C31.918 52.0556 32.2844 52.156 32.2821 52.2624C32.3031 53.0133 33.2111 53.2668 33.2833 53.8702C33.4212 55.1405 34.7743 55.8053 34.8103 57.0888C35.545 57.6942 35.6312 58.8833 36.7094 59.1734C36.451 59.5069 36.5725 59.8136 36.8515 60.0021C37.2306 60.2572 37.6548 60.4018 37.9029 59.8072L38.7795 60.2727C38.8955 60.5898 38.9958 60.8853 39.1174 61.1919C39.3071 61.064 39.4858 60.9571 39.6594 60.8341C40.5394 60.1715 39.6116 59.1139 40.1885 58.3845C39.7853 57.7669 40.1785 57.1283 40.1335 56.4991C40.0968 55.9819 40.1295 55.4612 40.1411 54.9294C40.1481 54.6103 40.1495 54.3016 40.2043 53.9945C40.6032 52.1214 40.6075 51.6798 40.1851 50.2314C40.0609 49.8023 39.8884 49.3878 40.0093 49.7211C39.9315 47.9042 40.2323 46.8534 39.8222 45.8151C39.4527 44.8791 39.388 43.93 39.4412 42.9629C39.4842 42.219 39.5638 41.5081 39.3082 40.7401C39.0769 40.0792 39.021 39.2156 39.2435 38.5671C39.4951 37.8129 39.1491 37.266 38.9861 36.6548C38.7944 35.8939 38.4954 35.1567 38.2591 34.4798C38.8767 33.5972 38.2239 32.9142 38.0829 32.0323C38.2172 31.7539 38.3966 31.3649 38.6212 30.8655C38.6237 30.0194 38.1295 29.1651 38.2646 28.1203C38.3806 27.2135 37.7241 26.2058 37.4626 25.2195C37.3833 24.9352 37.5188 24.6037 37.5096 24.2894C37.5042 23.5602 37.6495 22.7765 37.4344 22.1108C37.1893 21.3484 37.4743 20.5313 37.2368 19.9075C36.7464 18.6382 37.3055 17.2538 36.5786 16.0472C37.3465 15.1368 36.8587 13.99 37.1639 12.9818C36.5714 11.9812 36.8205 10.8491 36.8165 9.81124C36.804 8.91684 36.7249 7.8929 37.3153 7.03618C37.4033 6.92149 37.2122 6.61827 37.1168 6.33895C37.3917 6.22934 37.656 6.11412 37.947 5.99963C37.9234 5.6105 37.7576 5.13235 37.9192 4.82808C38.0863 4.51332 38.5759 4.35633 38.9332 4.14252C38.8645 3.86392 38.7808 3.53702 38.6822 3.16181C39.1714 2.77598 39.7551 2.46722 40.1077 1.98187C40.449 1.51751 40.9454 1.29685 41.2894 0.954962C42.076 0.162111 42.7944 -0.196208 43.8752 0.216345C44.0448 0.279495 44.2947 0.089382 44.52 0.0476106C44.579 0.03857 44.6573 0.120527 44.7257 0.170282L44.9253 0.814323C45.3269 0.772023 45.7285 0.729724 46.2586 0.674952C46.4473 1.08454 46.626 1.46192 46.8247 1.90371L48.5463 2.81797C48.6567 3.1456 48.7726 3.46274 48.8836 3.76378C50.1914 4.05478 50.3267 5.68693 51.5583 6.04504C51.6167 6.06259 51.6015 6.26973 51.6637 6.35657C52.3785 7.38182 53.1039 8.41268 53.8348 9.43305C53.8971 9.51989 54.1051 9.53619 54.1145 9.59499C54.4179 11.5989 56.4663 12.7136 56.7536 14.7224C57.5129 15.1795 57.788 16.0384 58.3191 16.6702C58.7719 17.22 58.7327 18.0332 59.3979 18.642C59.953 19.152 59.8925 20.2094 60.6204 20.8785C61.1339 21.3394 61.0613 22.2156 61.667 22.86C62.2881 23.5262 62.3749 24.6887 62.6705 25.5854L63.8217 26.1968C64.1361 27.2112 64.5811 28.3621 64.8436 29.5507C65.1111 30.7554 66.3184 31.4907 66.3172 32.7679C66.7963 33.0896 67.2437 33.3945 67.67 33.6881C67.6279 34.1499 67.5975 34.5642 67.5459 34.9673C67.4416 35.8266 68.7917 36.14 68.4768 36.8605C68.0827 37.7811 68.9415 38.3313 68.6776 39.1597C67.8339 39.1421 66.8356 39.1096 65.4847 39.0782C65.7142 39.8189 65.8933 40.4251 66.0835 41.0103C65.617 40.8433 65.0232 40.6356 64.2493 40.3591C64.5719 41.4855 64.8346 42.4186 65.1229 43.4056C64.9314 43.6133 64.7126 43.8468 64.2583 44.3454C64.193 43.4229 64.1324 42.772 64.1089 42.3829L63.1688 41.8837C62.8994 41.0142 62.6299 40.1448 62.3454 39.227L61.1836 38.61C60.9537 37.6405 60.7238 36.6711 60.5128 35.8191C59.7582 35.6337 59.6173 35.236 59.4397 34.8054C59.2821 34.4393 58.9031 34.1842 58.6369 33.8949C58.7495 33.6318 58.8448 33.4269 58.9574 33.1639C58.6719 32.7836 58.3659 32.3655 58.0648 31.9635L58.4047 31.3235C58.0986 30.9054 57.7547 30.5075 57.5138 30.0433C57.3034 29.6491 57.3657 28.9962 57.0656 28.7964C56.5498 28.4418 56.3617 28.0056 56.1864 27.4687C55.786 26.2338 55.6071 24.8878 54.5919 23.9183C54.6401 22.9351 53.7535 22.4373 53.3749 21.6713C53.104 21.1105 52.4163 20.7991 52.3792 20.053C52.3603 19.4512 51.6559 19.1713 51.5262 18.7526C50.7532 16.2304 48.5929 14.6123 47.4783 12.3256C46.1935 11.7106 45.8036 9.99702 43.9935 9.70833C43.8216 9.75156 43.3972 9.86242 42.946 9.97255C42.9264 10.137 42.8584 10.3161 42.8977 10.4715C43.1502 11.6279 42.5001 12.7757 42.9612 13.9217C42.3344 14.4901 43.1418 15.1879 42.7975 15.7852C42.4482 16.3665 42.8805 16.8785 43.0569 17.3622C43.2937 18.0126 42.7142 18.6195 43.0845 19.2735C43.2905 19.625 43.4335 20.1717 43.303 20.5194C43.0142 21.2673 43.4508 21.822 43.6138 22.4331C43.7567 22.9798 43.2986 23.409 43.5311 24.0167C43.733 24.5544 43.274 25.2657 43.6667 25.8777C43.9971 26.4029 43.6545 26.9205 43.6752 27.4426C43.7159 28.5134 44.7906 29.4473 44.1399 30.6217C44.4343 31.5716 44.7287 32.5216 44.9882 33.3588L44.3085 34.6389C44.7502 35.694 45.2574 36.9318 45.643 37.8629C45.3732 38.4729 45.1483 38.7435 45.2155 38.8465C45.6075 39.4851 44.9778 40.1864 45.2971 40.7326C45.8591 41.6632 45.2112 42.7047 45.6726 43.5953C46.1439 44.5182 45.406 45.5252 46.0102 46.4783C46.2479 46.8466 46.0521 47.4959 46.0299 48.0221C45.9258 49.85 45.8378 51.673 46.705 53.3037C46.5992 53.5031 46.5062 53.6017 46.5039 53.708C46.4235 58.1176 46.3437 62.5006 46.2524 67.16L45.4557 68.6604C45.5443 69.0034 45.6175 69.3247 45.7005 69.6782L43.8228 73.2141C42.827 73.5595 41.8331 74.054 40.6755 73.7352C40.532 73.6994 40.2602 74.1603 40.0358 74.4043C39.1786 74.5141 38.6437 73.813 37.9281 73.5541C37.8122 73.2369 37.7068 72.9254 37.5964 72.5978L36.4346 71.9808C36.3137 71.6475 36.1977 71.3304 36.0918 71.0455C35.7644 70.8716 35.3495 70.7858 35.184 70.5365C34.7348 69.8271 33.9555 69.3057 33.8201 68.4133C33.7073 67.7077 33.0742 67.3446 32.8567 66.7852C32.5787 66.0592 31.8276 65.7142 31.6644 64.8742C31.5299 64.1841 30.9659 63.5886 30.6117 62.9298C30.1548 62.0818 29.7196 61.2185 29.311 60.3559C28.8975 59.4772 28.1429 58.8074 27.9675 57.7862C27.8874 57.2997 27.0732 57.1499 27.0983 56.4907C26.2279 55.988 26.1843 55.0502 25.8825 54.1905L24.7207 53.5735C24.5049 52.9344 24.2892 52.2952 24.2038 52.0481C23.7205 51.4283 23.4661 51.0914 23.6216 51.3085C23.2363 50.6062 23.2181 50.462 23.1336 50.4171C22.347 49.986 21.5548 49.5653 20.8261 49.1783C20.3098 49.3345 19.8797 49.4559 19.4547 49.5933C19.5384 49.9203 19.6276 50.2367 19.7168 50.5531C19.2001 51.2202 19.4018 52.0133 19.2426 52.6955C19.0717 53.4253 19.5688 54.1466 19.0124 54.9138C18.6382 55.4145 18.6173 56.3718 18.8113 57.0264C19.0242 57.7985 18.3933 58.553 18.9444 59.2492L17.8356 61.3371C17.6756 61.0773 17.5157 60.8175 17.3396 60.5626C17.2258 60.3945 17.0846 60.2523 16.9101 60.1731L17.7347 58.6203C17.3152 57.0389 17.2829 57.0487 15.9831 57.1251C17.3066 57.9221 16.1885 59.2115 16.9157 60.1626C16.8544 60.278 16.7696 60.4886 16.6482 60.6662C16.4004 61.0054 16.5008 61.3008 16.7848 61.5055C17.1639 61.7606 17.5881 61.9051 17.8467 61.3161C18.4353 61.7632 18.4964 62.3875 18.4608 63.0411C18.4184 63.7584 18.1612 64.5231 18.3447 65.172C18.5631 65.9337 17.9167 66.6664 18.4678 67.3626C17.7013 67.9644 18.8729 68.8691 18.1481 69.5199C18.0663 69.5975 18.3706 70.0954 18.4516 70.2998L17.2927 72.4822C17.1627 72.319 16.8792 72.0878 16.9182 72.0143C17.2822 71.2526 17.0136 70.5854 16.6033 69.8025C15.8607 70.538 15.5617 71.5091 15.1461 72.1897C15.1384 73.2751 15.1236 74.1954 15.1138 75.1317L14.2372 74.6662C14.3247 73.8384 14.3589 73.0091 13.9592 72.2319C13.2944 72.3362 12.9701 72.998 13.0098 73.3822C13.1144 74.4601 12.4731 75.6932 13.559 76.6062C12.8346 77.4859 13.442 78.5348 13.2237 79.4815C13.2231 79.5081 13.4032 79.5768 13.5006 79.5209C13.3951 79.9491 13.1077 80.3884 13.8531 80.2596C13.7671 80.0391 13.6705 79.8129 13.5006 79.5209C13.7329 79.1601 13.978 78.6984 14.2288 78.2263C14.1025 77.6481 14.1326 77.0049 13.5484 76.6006L13.9496 75.8451C14.3937 75.5698 14.751 75.356 15.0977 75.1366L16.5552 75.9107C16.6156 76.817 17.7627 77.1302 17.7634 78.0722C17.7539 78.7532 17.7338 79.4285 17.7298 80.0989C16.704 80.3478 16.7821 79.4611 16.5156 78.943C16.2293 78.8448 15.9441 78.6933 15.6411 78.6265C15.7466 78.1983 16.034 77.7591 15.2886 77.8879C15.3852 78.114 15.4712 78.3345 15.6411 78.6265ZM38.7568 62.5339C38.7314 61.7402 38.7314 61.7402 37.7894 61.5762C37.6713 62.334 38.4217 62.2214 38.772 62.3267C38.6641 62.8613 38.3662 63.2949 39.106 63.1766C39.02 62.9561 38.934 62.7356 38.7568 62.5339ZM17.2449 68.3139C16.9355 67.3156 16.6062 66.253 16.2662 65.1847C16.2563 65.1525 16.1011 65.1642 15.9303 65.1543L15.2506 66.4343C15.4573 67.2435 15.6651 67.9996 15.8618 68.7766C16.2071 68.8658 16.5102 68.9326 16.776 68.993C16.947 68.7475 17.0684 68.5699 17.2449 68.3139ZM16.0904 62.966C15.7183 62.3918 15.1902 62.1114 14.3565 62.126C14.2533 62.4478 14.1333 62.8011 13.9844 63.26C14.4734 63.1296 14.78 63.0369 15.0971 62.9497C15.6475 63.1882 15.6475 63.1882 16.0904 62.966ZM17.8653 54.1162C17.5145 53.2978 16.9125 52.9781 16.0486 53.1515C16.3832 53.9748 16.9852 54.2945 17.8653 54.1162ZM13.7485 58.6556C14.0127 59.2801 13.9632 59.8322 14.3989 60.1847C14.8624 60.0003 15.0513 59.6702 14.8889 59.0325C14.592 58.9286 14.2262 58.8016 13.7485 58.6556ZM63.9097 37.8114C63.7439 37.8175 63.5837 37.8132 63.4074 37.8137C63.4374 37.9103 63.4494 38.0916 63.5078 38.1091C63.6618 38.1506 63.8332 38.1339 64.0095 38.1334L63.9097 37.8114ZM55.287 22.9154C55.3269 23.0442 55.3568 23.1408 55.3868 23.2374C55.5226 23.1347 55.6845 23.0593 55.7886 22.9397C55.827 22.8928 55.7393 22.7521 55.7044 22.6394C55.5686 22.7421 55.4278 22.8288 55.287 22.9154ZM14.2891 65.6951C14.16 65.7341 14.0632 65.7634 13.9664 65.7927C14.0703 65.9286 14.1469 66.0903 14.2675 66.1947C14.3147 66.2333 14.4555 66.1466 14.5685 66.1124C14.4646 65.9766 14.3663 65.8302 14.2891 65.6951Z" fill="#FFC700"/>
</svg>
